<?xml version="1.0" encoding="UTF-8" standalone="no"?>
<svg xmlns="http://www.w3.org/2000/svg" viewBox="0 0 318 12" height="12" width="323" version="1.1">
  <path d="M 4.5,0 A 4.5,6 0 0 0 0,6 4.5,6 0 0 0 4.5,12 l 309,0 A 4.5,6 0 0 0 318,6 4.5,6 0 0 0 313.5,0 L 4.5,0 Z" style="fill:#4c4c4c;stroke:none;" />
  <ellipse cx="7" cy="6" rx="2.1" ry="2.6" style="fill:#7f7f7f;stroke:none;" />
  <ellipse cx="23" cy="6" rx="2.1" ry="2.6" style="fill:#7f7f7f;stroke:none;" />
  <ellipse cx="39" cy="6" rx="2.1" ry="2.6" style="fill:#7f7f7f;stroke:none;" />
  <ellipse cx="55" cy="6" rx="2.1" ry="2.6" style="fill:#7f7f7f;stroke:none;" />
  <ellipse cx="71" cy="6" rx="2.1" ry="2.6" style="fill:#7f7f7f;stroke:none;" />
  <ellipse cx="87" cy="6" rx="2.1" ry="2.6" style="fill:#7f7f7f;stroke:none;" />
  <ellipse cx="103" cy="6" rx="2.1" ry="2.6" style="fill:#7f7f7f;stroke:none;" />
  <ellipse cx="119" cy="6" rx="2.1" ry="2.6" style="fill:#7f7f7f;stroke:none;" />
  <ellipse cx="135" cy="6" rx="2.1" ry="2.6" style="fill:#7f7f7f;stroke:none;" />
  <ellipse cx="151" cy="6" rx="2.1" ry="2.6" style="fill:#7f7f7f;stroke:none;" />
  <ellipse cx="167" cy="6" rx="2.1" ry="2.6" style="fill:#7f7f7f;stroke:none;" />
  <ellipse cx="183" cy="6" rx="2.1" ry="2.6" style="fill:#7f7f7f;stroke:none;" />
  <ellipse cx="199" cy="6" rx="2.1" ry="2.6" style="fill:#7f7f7f;stroke:none;" />
  <ellipse cx="215" cy="6" rx="2.1" ry="2.6" style="fill:#7f7f7f;stroke:none;" />
  <ellipse cx="231" cy="6" rx="2.1" ry="2.6" style="fill:#7f7f7f;stroke:none;" />
  <ellipse cx="247" cy="6" rx="2.1" ry="2.6" style="fill:#7f7f7f;stroke:none;" />
  <ellipse cx="263" cy="6" rx="2.1" ry="2.6" style="fill:#7f7f7f;stroke:none;" />
  <ellipse cx="279" cy="6" rx="2.1" ry="2.6" style="fill:#7f7f7f;stroke:none;" />
  <ellipse cx="295" cy="6" rx="2.1" ry="2.6" style="fill:#7f7f7f;stroke:none;" />
  <ellipse cx="311" cy="6" rx="2.1" ry="2.6" style="fill:#7f7f7f;stroke:none;" />
</svg>
