<?xml version="1.0" encoding="UTF-8" standalone="no"?>
<svg xmlns="http://www.w3.org/2000/svg" viewBox="0 0 612 12" height="12" width="612" version="1.1">
  <path d="M 4.5,0 A 4.5,6 0 0 0 0,6 4.5,6 0 0 0 4.5,12 l 603,0 A 4.5,6 0 0 0 612,6 4.5,6 0 0 0 607.5,0 L 4.5,0 Z" style="fill:#4c4c4c;stroke:none;" />
  <ellipse cx="10" cy="6" rx="2.1" ry="2.6" style="fill:#7f7f7f;stroke:none;" />
  <ellipse cx="47" cy="6" rx="2.1" ry="2.6" style="fill:#7f7f7f;stroke:none;" />
  <ellipse cx="84" cy="6" rx="2.1" ry="2.6" style="fill:#7f7f7f;stroke:none;" />
  <ellipse cx="121" cy="6" rx="2.1" ry="2.6" style="fill:#7f7f7f;stroke:none;" />
  <ellipse cx="158" cy="6" rx="2.1" ry="2.6" style="fill:#7f7f7f;stroke:none;" />
  <ellipse cx="195" cy="6" rx="2.1" ry="2.6" style="fill:#7f7f7f;stroke:none;" />
  <ellipse cx="232" cy="6" rx="2.1" ry="2.6" style="fill:#7f7f7f;stroke:none;" />
  <ellipse cx="269" cy="6" rx="2.1" ry="2.6" style="fill:#7f7f7f;stroke:none;" />
  <ellipse cx="306" cy="6" rx="2.1" ry="2.6" style="fill:#7f7f7f;stroke:none;" />
  <ellipse cx="343" cy="6" rx="2.1" ry="2.6" style="fill:#7f7f7f;stroke:none;" />
  <ellipse cx="380" cy="6" rx="2.1" ry="2.6" style="fill:#7f7f7f;stroke:none;" />
  <ellipse cx="417" cy="6" rx="2.1" ry="2.6" style="fill:#7f7f7f;stroke:none;" />
  <ellipse cx="454" cy="6" rx="2.1" ry="2.6" style="fill:#7f7f7f;stroke:none;" />
  <ellipse cx="491" cy="6" rx="2.1" ry="2.6" style="fill:#7f7f7f;stroke:none;" />
  <ellipse cx="528" cy="6" rx="2.1" ry="2.6" style="fill:#7f7f7f;stroke:none;" />
  <ellipse cx="565" cy="6" rx="2.1" ry="2.6" style="fill:#7f7f7f;stroke:none;" />
  <ellipse cx="602" cy="6" rx="2.1" ry="2.6" style="fill:#7f7f7f;stroke:none;" />
</svg>
