<?xml version="1.0" encoding="UTF-8" standalone="no"?>
<svg xmlns="http://www.w3.org/2000/svg" viewBox="0 0 610 12" height="12" width="610" version="1.1">
  <path d="M 4.5,0 A 4.5,6 0 0 0 0,6 4.5,6 0 0 0 4.5,12 l 601,0 A 4.5,6 0 0 0 610,6 4.5,6 0 0 0 605.5,0 L 4.5,0 Z" style="fill:#4c4c4c;stroke:none;" />
  <ellipse cx="11" cy="6" rx="2.1" ry="2.6" style="fill:#7f7f7f;stroke:none;" />
  <ellipse cx="53" cy="6" rx="2.1" ry="2.6" style="fill:#7f7f7f;stroke:none;" />
  <ellipse cx="95" cy="6" rx="2.1" ry="2.6" style="fill:#7f7f7f;stroke:none;" />
  <ellipse cx="137" cy="6" rx="2.1" ry="2.6" style="fill:#7f7f7f;stroke:none;" />
  <ellipse cx="179" cy="6" rx="2.1" ry="2.6" style="fill:#7f7f7f;stroke:none;" />
  <ellipse cx="221" cy="6" rx="2.1" ry="2.6" style="fill:#7f7f7f;stroke:none;" />
  <ellipse cx="263" cy="6" rx="2.1" ry="2.6" style="fill:#7f7f7f;stroke:none;" />
  <ellipse cx="305" cy="6" rx="2.1" ry="2.6" style="fill:#7f7f7f;stroke:none;" />
  <ellipse cx="347" cy="6" rx="2.1" ry="2.6" style="fill:#7f7f7f;stroke:none;" />
  <ellipse cx="389" cy="6" rx="2.1" ry="2.6" style="fill:#7f7f7f;stroke:none;" />
  <ellipse cx="431" cy="6" rx="2.1" ry="2.6" style="fill:#7f7f7f;stroke:none;" />
  <ellipse cx="473" cy="6" rx="2.1" ry="2.6" style="fill:#7f7f7f;stroke:none;" />
  <ellipse cx="515" cy="6" rx="2.1" ry="2.6" style="fill:#7f7f7f;stroke:none;" />
  <ellipse cx="557" cy="6" rx="2.1" ry="2.6" style="fill:#7f7f7f;stroke:none;" />
  <ellipse cx="599" cy="6" rx="2.1" ry="2.6" style="fill:#7f7f7f;stroke:none;" />
</svg>
